<svg xmlns="http://www.w3.org/2000/svg" version="1.1" xmlns:xlink="http://www.w3.org/1999/xlink" xmlns:svgjs="http://svgjs.dev/svgjs" width="2000" height="1136" viewBox="0 0 2000 1136"><g transform="matrix(1,0,0,1,-1.2121212121212466,-2.0111311238093776)"><svg viewBox="0 0 396 225" data-background-color="#ffffff" preserveAspectRatio="xMidYMid meet" height="1136" width="2000" xmlns="http://www.w3.org/2000/svg" xmlns:xlink="http://www.w3.org/1999/xlink"><g id="tight-bounds" transform="matrix(1,0,0,1,0.2400000000000091,0.39833142857141013)"><svg viewBox="0 0 395.52 224.20333714285718" height="224.20333714285718" width="395.52"><g><svg viewBox="0 0 395.52 224.20333714285718" height="224.20333714285718" width="395.52"><g><svg viewBox="0 0 395.52 224.20333714285718" height="224.20333714285718" width="395.52"><g id="textblocktransform"><svg viewBox="0 0 395.52 224.20333714285718" height="224.20333714285718" width="395.52" id="textblock"><g><svg viewBox="0 0 395.52 224.20333714285718" height="224.20333714285718" width="395.52"><g transform="matrix(1,0,0,1,0,0)"><svg width="395.52" viewBox="1.75 -45.9 175 96.5" height="224.20333714285718" data-palette-color="#808d7c"><svg></svg><svg></svg><g class="wordmark-text-0" data-fill-palette-color="primary" id="text-0"><path d="M10.75-18.1l0.25 11.05 0.3 4.55 3.65 1-0.25 2-6.1-0.5-6.85 0.5 0.1-2 3.75-1 0.35-5.4 0.2-10.3-0.15-9.85-0.35-4.45-3.65-1 0.25-2 6.1 0.5 6.85-0.5-0.1 2-3.8 1-0.35 4.35zM5-43l1.15-1.85 2.25-1.05 2.3 0.75 1.05 2.6-1.35 2.1-2.25 0.9-2.1-1.3zM23.95 0l-6.1 0.25 0.1-1.75 3.3-1 0.25-5.25 0.2-10.95-0.3-11.15-0.25-5-3.55 0.15-0.25-1.75 6.9-1.35 2.5 0.55-0.35 6.6-0.3 17.5 0.15 4.85 0.4 5.8 3.65 1-0.25 1.75zM40.55-37.25l-0.25 6.8-0.15 8.2 5.55-3.4 5.1-0.35 4.6 3.15 0.75 4-0.1 10.55 0.4 5.85 3.55 0.95-0.25 1.75-5.9-0.25-6.1 0.25 0.1-1.75 3.3-1 0.35-5.25-0.2-10.9-1.35-3.3-4.25-0.75-5.6 2.85-0.1 6.7 0.1 4.85 0.15 5.8 3.65 1-0.25 1.75-5.9-0.25-6.1 0.25 0.1-1.75 3.3-1 0.45-5.25-0.2-21.9-0.35-5.2-3.55 0.15-0.25-1.75 6.9-1.35zM81.2-19.8l0.05 10.7 0.35 7.05 3.45 0.5-0.35 1.65-6.95 0.6-0.65-2.95h-0.25l-4.95 2.95h-5.2l-3.5-2.55-1.05-4.9 2.2-3.9 6-2.6 6.6-0.25-0.2-6.25-0.95-3.1-4.05-1.15-4.85 1.15-0.15 5.3-1.95 0.4-1.3-6.85 5.75-1.7 6.45-0.3 3.9 1.9zM67-6.85l1.35 4.05 3.75 0.95 5.05-2.9-0.2-6.75h-4.35l-3.85 1.55zM111.45-8.3l0.4 5.85 3.55 0.95-0.25 1.75-5.9-0.25-6.1 0.25 0.1-1.75 3.3-1 0.35-5.25-0.2-10.9-1.35-3.3-4.25-0.75-5.45 2.8-0.1 1.75-0.3 5 0.1 4.85 0.25 5.8 3.65 1-0.25 1.75-5.9-0.25-6.1 0.25 0.1-1.75 3.3-1 0.35-5.25-0.45-14.8-3.55 0.15-0.25-1.75 6.9-1.35 2.5 0.55-0.15 2.55 5.35-3.25 5.1-0.35 4.6 3.15 0.75 4z" fill="#808d7c" fill-rule="nonzero" stroke="none" stroke-width="1" stroke-linecap="butt" stroke-linejoin="miter" stroke-miterlimit="10" stroke-dasharray="" stroke-dashoffset="0" font-family="none" font-weight="none" font-size="none" text-anchor="none" style="mix-blend-mode: normal" data-fill-palette-color="primary" opacity="1"></path><path d="M27.5 17.75l-10.2 12.4 11.75 16.5 4.8 1.45-0.25 2-6.1-0.5-7.6 0.5 0.1-2 3.75-0.95-2-3.5-7.15-10.25-4 0.5 0.25 13.2 4.1 1-0.25 2-6.1-0.5-6.85 0.5 0.1-2 4.15-1 0.35-14.3-0.4-15.7-3.95-1 0.25-2 6.1 0.5 6.85-0.5-0.1 2-4.2 1-0.35 14.5 2.95-0.45 8.75-11.05 1.65-3.2-3.15-0.8 0.25-2 6.2 0.5 5.2-0.5-0.1 2zM53.7 29.8l0.05 10.7 0.35 7.05 3.45 0.5-0.35 1.65-6.95 0.6-0.65-2.95h-0.25l-4.95 2.95h-5.2l-3.5-2.55-1.05-4.9 2.2-3.9 6-2.6 6.6-0.25-0.2-6.25-0.95-3.1-4.05-1.15-4.85 1.15-0.15 5.3-1.95 0.4-1.3-6.85 5.75-1.7 6.45-0.3 3.9 1.9zM39.5 42.75l1.35 4.05 3.75 0.95 5.05-2.9-0.2-6.75h-4.35l-3.85 1.55zM66.95 12.35l-0.6 14.4 0.35 0.35 5.2-2.85 5.45-0.15 5.3 4.05 2.1 8.35-1.5 7.45-3.6 4.55-7.2 2.1-9.45-1.25-1.75-1.75 0.4-16.5-0.05-11.35-0.25-5-3.55 0.15-0.25-1.75 6.9-1.35zM66.35 29.5l-0.1 12.45 0.4 4.65 6.5 1.45 4.95-3.1 1.45-5.5-0.2-6.6-3.55-5.15-3.1-0.75zM107.1 29.8l0.05 10.7 0.35 7.05 3.45 0.5-0.35 1.65-6.95 0.6-0.65-2.95h-0.25l-4.95 2.95h-5.2l-3.5-2.55-1.05-4.9 2.2-3.9 6-2.6 6.6-0.25-0.2-6.25-0.95-3.1-4.05-1.15-4.85 1.15-0.15 5.3-1.95 0.4-1.3-6.85 5.75-1.7 6.45-0.3 3.9 1.9zM92.9 42.75l1.35 4.05 3.75 0.95 5.05-2.9-0.2-6.75h-4.35l-3.85 1.55zM118.5 49.6l-6.1 0.25 0.1-1.75 3.3-1 0.25-5.25 0.2-10.95-0.3-11.15-0.25-5-3.55 0.15-0.25-1.75 6.9-1.35 2.5 0.55-0.35 6.6-0.3 17.5 0.15 4.85 0.4 5.8 3.65 1-0.25 1.75zM145.85 29.8l0.05 10.7 0.35 7.05 3.45 0.5-0.35 1.65-6.95 0.6-0.65-2.95h-0.25l-4.95 2.95h-5.2l-3.5-2.55-1.05-4.9 2.2-3.9 6-2.6 6.6-0.25-0.2-6.25-0.95-3.1-4.05-1.15-4.85 1.15-0.15 5.3-1.95 0.4-1.3-6.85 5.75-1.7 6.45-0.3 3.9 1.9zM131.65 42.75l1.35 4.05 3.75 0.95 5.05-2.9-0.2-6.75h-4.35l-3.85 1.55zM160.95 35.8l5.25-5.8 2.3-3.35-3.35-0.55 0.25-1.75 5.25 0.25 4.6-0.25-0.1 1.75-3.5 1.1-7.15 7.7 4.15 5.85 5.15 6.35 2.95 1-0.25 1.75-5.2-0.25-4.75 0.25 0.1-1.75 2.4-0.15-1.35-2.5-5.8-7.7h-2.45l0.1 3.55 0.1 5.8 3.45 1-0.3 1.75-5.55-0.25-6.4 0.25 0.2-1.75 3.5-0.85 0.15-5.4 0.2-10.95-0.2-11.15-0.25-5-3.55 0.15-0.25-1.75 6.9-1.35 2.5 0.55-0.35 6.6-0.3 16.85z" fill="#c8c8c8" fill-rule="nonzero" stroke="none" stroke-width="1" stroke-linecap="butt" stroke-linejoin="miter" stroke-miterlimit="10" stroke-dasharray="" stroke-dashoffset="0" font-family="none" font-weight="none" font-size="none" text-anchor="none" style="mix-blend-mode: normal" data-fill-palette-color="secondary" opacity="1"></path></g></svg></g></svg></g></svg></g></svg></g></svg></g><defs></defs></svg><rect width="395.52" height="224.20333714285718" fill="none" stroke="none" visibility="hidden"></rect></g></svg></g></svg>